<svg width="171" height="128" viewBox="0 0 171 128" fill="none" xmlns="http://www.w3.org/2000/svg">
<path d="M101.708 0.00573017C96.1034 0.00573017 90.4928 2.12173 86.2165 6.37079C84.1843 8.39106 82.5718 10.7917 81.4716 13.435C80.3714 16.0783 79.805 18.9122 79.805 21.7743C79.805 24.6365 80.3714 27.4704 81.4716 30.1137C82.5718 32.757 84.1843 35.1576 86.2165 37.1779C86.2427 37.2011 86.2693 37.2239 86.2963 37.2462L117.696 66.4208C118.223 66.9098 118.915 67.182 119.635 67.183H119.692C120.411 67.182 121.104 66.9098 121.63 66.4208L153.047 37.2405C161.959 28.9642 161.657 14.8632 153.11 6.37079C152.843 6.10228 152.525 5.88957 152.175 5.74509H152.163C143.571 -1.93394 130.411 -1.84861 122.143 6.37079L119.657 8.83945L117.189 6.37079C115.155 4.34579 112.741 2.74078 110.084 1.64761C107.428 0.554441 104.582 -0.00543099 101.708 3.97076e-05V0.00573017ZM101.708 5.63701V5.64839C105.842 5.64839 109.976 7.23539 113.169 10.4037L117.656 14.8575C118.19 15.3872 118.913 15.6846 119.666 15.6846C120.419 15.6846 121.142 15.3872 121.676 14.8575L126.163 10.4037C127.665 8.89644 129.451 7.70029 131.417 6.88405C133.384 6.06782 135.493 5.64761 137.624 5.64761C139.754 5.64761 141.863 6.06782 143.83 6.88405C145.797 7.70029 147.583 8.89644 149.084 10.4037C149.09 10.4037 149.096 10.4037 149.101 10.4037C155.47 16.7403 155.658 27.0359 149.158 33.0767L119.669 60.4653L90.2477 33.145C88.7326 31.6609 87.5292 29.8905 86.7078 27.9372C85.8863 25.9839 85.4632 23.8869 85.4632 21.7687C85.4632 19.6504 85.8863 17.5534 86.7078 15.6001C87.5292 13.6468 88.7326 11.8764 90.2477 10.3923C91.7502 8.88622 93.536 7.69087 95.5027 6.87484C97.4694 6.05881 99.5782 5.63816 101.708 5.63701ZM2.85089 52.6327C2.09478 52.6327 1.36965 52.9323 0.835006 53.4657C0.300361 53.999 0 54.7224 0 55.4767V113.399C0 114.154 0.300361 114.877 0.835006 115.41C1.36965 115.944 2.09478 116.243 2.85089 116.243H34.0453C34.8014 116.243 35.5265 115.944 36.0612 115.41C36.5958 114.877 36.8962 114.154 36.8962 113.399V109.213L90.1507 127.21C90.2241 127.232 90.2982 127.251 90.3731 127.267C96.5709 128.837 103.727 127.904 109.132 124.281L164.279 94.3838C164.295 94.3839 164.31 94.3839 164.325 94.3838L165.676 93.6159C167.906 92.3619 169.597 90.3363 170.43 87.9223C171.263 85.5083 171.181 82.8734 170.198 80.5161C168.447 76.3921 165.009 74.498 162.324 74.1055V74.0827C160.685 73.8513 159.016 73.9775 157.432 74.4525C157.336 74.4873 157.243 74.5272 157.152 74.5719L126.75 88.6388C126.79 88.252 126.876 87.8879 126.876 87.4954C126.876 81.1019 121.573 75.9086 115.136 75.9086H89.82C89.7174 75.7152 89.5919 75.4422 89.4893 75.2602C88.1372 72.8183 86.4332 70.5875 84.4319 68.6392C78.8777 63.2391 71.4215 60.2286 63.666 60.2548H36.8962V55.4767C36.8962 54.7224 36.5958 53.999 36.0612 53.4657C35.5265 52.9323 34.8014 52.6327 34.0453 52.6327H2.85089ZM5.70177 58.3208H31.1944V110.555H5.70177V58.3208ZM36.8905 65.943H63.666C67.5228 65.9266 71.326 66.8439 74.7492 68.6164C78.1724 70.3888 81.1135 72.9634 83.32 76.1191C83.7419 76.7334 84.1411 77.3648 84.5003 78.0189C84.9507 78.821 85.2529 79.3158 85.4924 79.8733L86.2279 81.5968H115.136C118.557 81.5968 121.174 84.202 121.174 87.4954C121.174 89.9641 119.697 92.0289 117.525 92.9163L117.485 92.9276C116.767 93.212 115.98 93.3827 115.136 93.3827H75.4801V99.0709H115.136C116.333 99.0709 117.457 98.832 118.546 98.502C118.884 98.4794 119.217 98.3966 119.526 98.2575L159.313 79.8505C159.365 79.8505 160.305 79.5434 161.497 79.7197C162.723 79.8904 163.892 80.2316 164.952 82.7174C165.413 83.7873 165.454 84.9906 165.067 86.0893C164.681 87.1879 163.895 88.1018 162.865 88.6501L161.531 89.3896L106.184 119.412C106.104 119.455 106.026 119.503 105.95 119.554C102.187 122.079 96.3485 122.91 91.7871 121.755H91.7757L36.8962 103.212L36.8905 65.943Z" fill="white"/>
</svg>
