<svg id="wave" style="transform:rotate(0deg); transition: 0.3s" viewBox="0 0 1440 490" version="1.1" xmlns="http://www.w3.org/2000/svg"><defs><linearGradient id="sw-gradient-0" x1="0" x2="0" y1="1" y2="0"><stop stop-color="rgba(216, 178, 177, 1)" offset="0%"></stop><stop stop-color="rgba(216, 178, 177, 1)" offset="100%"></stop></linearGradient></defs><path style="transform:translate(0, 0px); opacity:1" fill="url(#sw-gradient-0)" d="M0,245L34.3,212.3C68.6,180,137,114,206,130.7C274.3,147,343,245,411,277.7C480,310,549,278,617,261.3C685.7,245,754,245,823,236.8C891.4,229,960,212,1029,196C1097.1,180,1166,163,1234,187.8C1302.9,212,1371,278,1440,269.5C1508.6,261,1577,180,1646,163.3C1714.3,147,1783,196,1851,196C1920,196,1989,147,2057,163.3C2125.7,180,2194,261,2263,302.2C2331.4,343,2400,343,2469,302.2C2537.1,261,2606,180,2674,196C2742.9,212,2811,327,2880,326.7C2948.6,327,3017,212,3086,171.5C3154.3,131,3223,163,3291,171.5C3360,180,3429,163,3497,155.2C3565.7,147,3634,147,3703,196C3771.4,245,3840,343,3909,383.8C3977.1,425,4046,408,4114,400.2C4182.9,392,4251,392,4320,334.8C4388.6,278,4457,163,4526,98C4594.3,33,4663,16,4731,81.7C4800,147,4869,294,4903,367.5L4937.1,441L4937.1,490L4902.9,490C4868.6,490,4800,490,4731,490C4662.9,490,4594,490,4526,490C4457.1,490,4389,490,4320,490C4251.4,490,4183,490,4114,490C4045.7,490,3977,490,3909,490C3840,490,3771,490,3703,490C3634.3,490,3566,490,3497,490C3428.6,490,3360,490,3291,490C3222.9,490,3154,490,3086,490C3017.1,490,2949,490,2880,490C2811.4,490,2743,490,2674,490C2605.7,490,2537,490,2469,490C2400,490,2331,490,2263,490C2194.3,490,2126,490,2057,490C1988.6,490,1920,490,1851,490C1782.9,490,1714,490,1646,490C1577.1,490,1509,490,1440,490C1371.4,490,1303,490,1234,490C1165.7,490,1097,490,1029,490C960,490,891,490,823,490C754.3,490,686,490,617,490C548.6,490,480,490,411,490C342.9,490,274,490,206,490C137.1,490,69,490,34,490L0,490Z"></path></svg>